<?xml version="1.0" encoding="UTF-8"?>
<svg width="20px" height="15px" viewBox="0 0 20 15" version="1.1" xmlns="http://www.w3.org/2000/svg" xmlns:xlink="http://www.w3.org/1999/xlink">
    <!-- Generator: Sketch 51 (57462) - http://www.bohemiancoding.com/sketch -->
    <title>←</title>
    <desc>Created with Sketch.</desc>
    <defs></defs>
    <g id="Symbols" stroke="none" stroke-width="1" fill="none" fill-rule="evenodd">
        <g id="Dark-keyboard-/-Shift-On" transform="translate(-289.000000, -110.000000)">
            <g id="Row-3" transform="translate(3.000000, 99.000000)">
                <g id="←" transform="translate(278.000000, 0.000000)">
                    <g id="Group" transform="translate(8.000000, 11.000000)">
                        <path d="M16.1616304,0.826086957 L7.85684783,0.826086957 C7.18224891,0.826086957 6.53515155,1.09402045 6.05824141,1.57093059 L0.60800074,7.0216059 C0.463961993,7.16546021 0.463961993,7.3995726 0.608241405,7.54385202 L6.0582273,12.9942727 C6.53515155,13.4711969 7.18224891,13.7391304 7.85684783,13.7391304 L16.1616304,13.7391304 C17.5663576,13.7391304 18.7051087,12.6003794 18.7051087,11.1956522 L18.7051087,3.36956522 C18.7051087,1.96456445 17.5665188,0.826086957 16.1616304,0.826086957 Z" id="Imported-Layers" stroke="#1C1D21"></path>
                        <polygon id="Path" fill="#1C1D21" points="15.3494565 9.89565217 14.4268478 10.8182609 11.8138043 8.20478261 9.20032609 10.8182609 8.27815217 9.89565217 10.8916304 7.2826087 8.27815217 4.66913043 9.20032609 3.74695652 11.8138043 6.36043478 14.4268478 3.74695652 15.3494565 4.66913043 12.7359783 7.2826087"></polygon>
                    </g>
                </g>
            </g>
        </g>
    </g>
</svg>