<?xml version="1.0" encoding="UTF-8"?>
<svg width="20px" height="15px" viewBox="0 0 20 15" version="1.1" xmlns="http://www.w3.org/2000/svg" xmlns:xlink="http://www.w3.org/1999/xlink">
    <!-- Generator: Sketch 51 (57462) - http://www.bohemiancoding.com/sketch -->
    <title>←</title>
    <desc>Created with Sketch.</desc>
    <defs></defs>
    <g id="Symbols" stroke="none" stroke-width="1" fill="none" fill-rule="evenodd">
        <g id="Dark-keyboard-/-Default" transform="translate(-289.000000, -110.000000)">
            <g id="Row-3" transform="translate(3.000000, 99.000000)">
                <g id="←" transform="translate(278.000000, 0.000000)">
                    <path d="M24.1616304,11.326087 L15.8568478,11.326087 C15.0498913,11.326087 14.2755435,11.6465217 13.7046739,12.2173913 L8.25467391,17.6678261 C7.9151087,18.0069565 7.9151087,18.5578261 8.25467391,18.8973913 L13.7046739,24.3478261 C14.2755435,24.9186957 15.0498913,25.2391304 15.8568478,25.2391304 L24.1616304,25.2391304 C25.8425,25.2391304 27.2051087,23.8765217 27.2051087,22.1956522 L27.2051087,14.3695652 C27.2051087,12.6882609 25.8425,11.326087 24.1616304,11.326087 L24.1616304,11.326087 Z" id="Imported-Layers" fill="#1C1D21"></path>
                    <polygon id="Path" fill="#FFFFFF" points="23.3494565 20.8956522 22.4268478 21.8182609 19.8138043 19.2047826 17.2003261 21.8182609 16.2781522 20.8956522 18.8916304 18.2826087 16.2781522 15.6691304 17.2003261 14.7469565 19.8138043 17.3604348 22.4268478 14.7469565 23.3494565 15.6691304 20.7359783 18.2826087"></polygon>
                </g>
            </g>
        </g>
    </g>
</svg>